<svg width="90" height="90" viewBox="0 0 90 90" fillRule="none" xmlns="http://www.w3.org/2000/svg">
<g clipPath="url(#clip0_20_73)">
<path d="M45.0001 3.60001C36.812 3.60001 28.8077 6.02807 21.9995 10.5772C15.1913 15.1263 9.88497 21.5921 6.7515 29.1569C3.61804 36.7218 2.79818 45.046 4.39561 53.0768C5.99303 61.1076 9.936 68.4844 15.7259 74.2743C21.5158 80.0642 28.8926 84.0071 36.9234 85.6045C44.9542 87.202 53.2784 86.3821 60.8432 83.2486C68.4081 80.1152 74.8739 74.8088 79.423 68.0006C83.9721 61.1924 86.4001 53.1882 86.4001 45C86.4001 34.0201 82.0384 23.4898 74.2743 15.7258C66.5103 7.96178 55.9801 3.60001 45.0001 3.60001ZM30.2161 65.082H23.7361V31.416L24.8221 30.816L26.9581 29.586L24.8221 28.32L23.7361 27.69V24.498H30.2161V65.082ZM39.2161 54.882H32.7541V34.482H39.2401L39.2161 54.882ZM48.2161 65.082H41.7721V44.682H48.2581L48.2161 65.082ZM57.2161 54.882H50.7961V34.482H57.2761L57.2161 54.882ZM66.2161 65.082H59.8141V24.498H66.3001L66.2161 65.082Z" fill="white"/>
<path d="M45 90C36.0999 90 27.3996 87.3608 19.9994 82.4162C12.5992 77.4715 6.83139 70.4434 3.42544 62.2208C0.0194979 53.9981 -0.871653 44.9501 0.864683 36.2209C2.60102 27.4918 6.88686 19.4736 13.1802 13.1802C19.4736 6.88683 27.4918 2.60099 36.221 0.864652C44.9501 -0.871683 53.9981 0.0194674 62.2208 3.42541C70.4435 6.83136 77.4715 12.5991 82.4162 19.9993C87.3608 27.3996 90.0001 36.0998 90.0001 45C89.9874 56.9309 85.2422 68.3694 76.8058 76.8058C68.3694 85.2422 56.9309 89.9873 45 90ZM45 0.55199C36.209 0.55199 27.6155 3.15882 20.306 8.04283C12.9966 12.9268 7.29959 19.8687 3.93542 27.9905C0.571259 36.1123 -0.30896 45.0493 1.40608 53.6714C3.12111 62.2935 7.35438 70.2133 13.5705 76.4295C19.7867 82.6457 27.7066 86.8789 36.3287 88.594C44.9507 90.309 53.8877 89.4288 62.0096 86.0646C70.1314 82.7005 77.0732 77.0034 81.9572 69.694C86.8412 62.3846 89.4481 53.791 89.4481 45C89.4354 33.2156 84.7484 21.9174 76.4155 13.5845C68.0826 5.25168 56.7845 0.564696 45 0.55199Z" fill="white"/>
</g>
<defs>
<clipPath id="clip0_20_73">
<rect width="90" height="90" fillRule="white"/>
</clipPath>
</defs>
</svg>
